<svg xmlns="http://www.w3.org/2000/svg" xmlns:xlink="http://www.w3.org/1999/xlink" zoomAndPan="magnify" preserveAspectRatio="xMidYMid meet" version="1.2" viewBox="252.49 356.03 305.02 73.09"><defs/><g id="e4bebae5f2"><g style="fill:#2b2b2b;fill-opacity:1;"><g transform="translate(247.469625, 427.874998)"><path style="stroke:none" d="M 5.015625 0 L 5.015625 -42.859375 L 19.796875 -42.859375 L 19.796875 -38.34375 L 19.96875 -38.34375 C 23.8125 -42.1875 27.90625 -44.109375 32.25 -44.109375 C 34.363281 -44.109375 36.460938 -43.828125 38.546875 -43.265625 C 40.640625 -42.710938 42.644531 -41.851562 44.5625 -40.6875 C 46.488281 -39.519531 48.050781 -37.863281 49.25 -35.71875 C 50.445312 -33.570312 51.046875 -31.078125 51.046875 -28.234375 L 51.046875 0 L 36.265625 0 L 36.265625 -24.234375 C 36.265625 -26.460938 35.550781 -28.410156 34.125 -30.078125 C 32.707031 -31.742188 30.859375 -32.578125 28.578125 -32.578125 C 26.347656 -32.578125 24.328125 -31.710938 22.515625 -29.984375 C 20.703125 -28.265625 19.796875 -26.347656 19.796875 -24.234375 L 19.796875 0 Z M 5.015625 0 "/></g></g><g style="fill:#2b2b2b;fill-opacity:1;"><g transform="translate(296.174612, 427.874998)"><path style="stroke:none" d="M 9.0625 -5.09375 C 4.300781 -9.332031 1.921875 -14.765625 1.921875 -21.390625 C 1.921875 -28.015625 4.398438 -33.457031 9.359375 -37.71875 C 14.316406 -41.976562 20.441406 -44.109375 27.734375 -44.109375 C 34.921875 -44.109375 40.976562 -41.960938 45.90625 -37.671875 C 50.832031 -33.390625 53.296875 -27.960938 53.296875 -21.390625 C 53.296875 -14.816406 50.882812 -9.398438 46.0625 -5.140625 C 41.25 -0.878906 35.140625 1.25 27.734375 1.25 C 20.046875 1.25 13.820312 -0.863281 9.0625 -5.09375 Z M 20.5 -28.65625 C 18.582031 -26.757812 17.625 -24.332031 17.625 -21.375 C 17.625 -18.425781 18.539062 -16.019531 20.375 -14.15625 C 22.21875 -12.289062 24.644531 -11.359375 27.65625 -11.359375 C 30.550781 -11.359375 32.929688 -12.304688 34.796875 -14.203125 C 36.660156 -16.097656 37.59375 -18.492188 37.59375 -21.390625 C 37.59375 -24.335938 36.628906 -26.757812 34.703125 -28.65625 C 32.785156 -30.550781 30.4375 -31.5 27.65625 -31.5 C 24.8125 -31.5 22.425781 -30.550781 20.5 -28.65625 Z M 20.5 -28.65625 "/></g></g><g style="fill:#2b2b2b;fill-opacity:1;"><g transform="translate(344.8796, 427.874998)"><path style="stroke:none" d="M 27.828125 -32 C 25.035156 -32 22.632812 -30.96875 20.625 -28.90625 C 18.625 -26.84375 17.625 -24.363281 17.625 -21.46875 C 17.625 -18.519531 18.625 -16.015625 20.625 -13.953125 C 22.632812 -11.890625 25.035156 -10.859375 27.828125 -10.859375 C 29.160156 -10.859375 30.425781 -11.023438 31.625 -11.359375 C 32.820312 -11.691406 33.695312 -12.023438 34.25 -12.359375 L 35 -12.859375 L 40.015625 -2.59375 C 39.628906 -2.3125 39.085938 -1.960938 38.390625 -1.546875 C 37.691406 -1.128906 36.101562 -0.5625 33.625 0.15625 C 31.144531 0.882812 28.488281 1.25 25.65625 1.25 C 19.351562 1.25 13.820312 -0.960938 9.0625 -5.390625 C 4.300781 -9.816406 1.921875 -15.117188 1.921875 -21.296875 C 1.921875 -27.535156 4.300781 -32.894531 9.0625 -37.375 C 13.820312 -41.863281 19.351562 -44.109375 25.65625 -44.109375 C 28.488281 -44.109375 31.101562 -43.773438 33.5 -43.109375 C 35.894531 -42.441406 37.59375 -41.773438 38.59375 -41.109375 L 40.015625 -40.109375 L 35 -30 C 33.164062 -31.332031 30.773438 -32 27.828125 -32 Z M 27.828125 -32 "/></g></g><g style="fill:#2b2b2b;fill-opacity:1;"><g transform="translate(379.382288, 427.874998)"><path style="stroke:none" d="M 6.421875 -66.75 C 8.148438 -68.476562 10.210938 -69.34375 12.609375 -69.34375 C 15.003906 -69.34375 17.066406 -68.476562 18.796875 -66.75 C 20.523438 -65.019531 21.390625 -62.957031 21.390625 -60.5625 C 21.390625 -58.175781 20.523438 -56.117188 18.796875 -54.390625 C 17.066406 -52.660156 15.003906 -51.796875 12.609375 -51.796875 C 10.210938 -51.796875 8.148438 -52.660156 6.421875 -54.390625 C 4.703125 -56.117188 3.84375 -58.175781 3.84375 -60.5625 C 3.84375 -62.957031 4.703125 -65.019531 6.421875 -66.75 Z M 5.015625 -42.859375 L 5.015625 0 L 19.796875 0 L 19.796875 -42.859375 Z M 5.015625 -42.859375 "/></g></g><g style="fill:#2b2b2b;fill-opacity:1;"><g transform="translate(398.095357, 427.874998)"><path style="stroke:none" d="M 5.015625 0 L 5.015625 -71.84375 L 19.796875 -71.84375 L 19.796875 0 Z M 5.015625 0 "/></g></g><g style="fill:#2b2b2b;fill-opacity:1;"><g transform="translate(416.390717, 427.874998)"><path style="stroke:none" d="M 5.015625 0 L 5.015625 -71.84375 L 19.796875 -71.84375 L 19.796875 0 Z M 5.015625 0 "/></g></g><g style="fill:#2b2b2b;fill-opacity:1;"><g transform="translate(434.686076, 427.874998)"><path style="stroke:none" d="M 7.9375 -5.296875 C 3.925781 -9.671875 1.921875 -15.03125 1.921875 -21.375 C 1.921875 -27.726562 3.925781 -33.101562 7.9375 -37.5 C 11.945312 -41.90625 17.039062 -44.109375 23.21875 -44.109375 C 28.90625 -44.109375 33.585938 -42.328125 37.265625 -38.765625 L 37.265625 -42.859375 L 52.046875 -42.859375 L 52.046875 0 L 37.421875 0 L 37.421875 -4.84375 L 37.265625 -4.84375 C 33.585938 -0.78125 28.90625 1.25 23.21875 1.25 C 17.039062 1.25 11.945312 -0.929688 7.9375 -5.296875 Z M 20.5 -28.65625 C 18.582031 -26.757812 17.625 -24.332031 17.625 -21.375 C 17.625 -18.425781 18.539062 -16.019531 20.375 -14.15625 C 22.21875 -12.289062 24.644531 -11.359375 27.65625 -11.359375 C 30.550781 -11.359375 32.929688 -12.304688 34.796875 -14.203125 C 36.660156 -16.097656 37.59375 -18.492188 37.59375 -21.390625 C 37.59375 -24.335938 36.628906 -26.757812 34.703125 -28.65625 C 32.785156 -30.550781 30.4375 -31.5 27.65625 -31.5 C 24.8125 -31.5 22.425781 -30.550781 20.5 -28.65625 Z M 20.5 -28.65625 "/></g></g><g style="fill:#2b2b2b;fill-opacity:1;"><g transform="translate(485.228997, 427.874998)"><path style="stroke:none" d="M 54.640625 0 L 36.765625 0 L 27.3125 -12.109375 L 17.875 0 L 0 0 L 18.296875 -22.390625 L 2.59375 -42.859375 L 19.890625 -42.859375 L 27.3125 -32.921875 L 34.75 -42.859375 L 52.046875 -42.859375 L 36.34375 -22.390625 Z M 54.640625 0 "/></g></g><g style="fill:#c1121f;fill-opacity:1;"><g transform="translate(533.360239, 427.874998)"><path style="stroke:none" d="M 14.53125 -17.875 C 17.207031 -17.875 19.476562 -16.941406 21.34375 -15.078125 C 23.207031 -13.210938 24.140625 -10.941406 24.140625 -8.265625 C 24.140625 -5.648438 23.207031 -3.410156 21.34375 -1.546875 C 19.476562 0.316406 17.207031 1.25 14.53125 1.25 C 11.914062 1.25 9.675781 0.316406 7.8125 -1.546875 C 5.945312 -3.410156 5.015625 -5.648438 5.015625 -8.265625 C 5.015625 -10.941406 5.945312 -13.210938 7.8125 -15.078125 C 9.675781 -16.941406 11.914062 -17.875 14.53125 -17.875 Z M 14.53125 -17.875 "/></g></g></g></svg>